<?xml version="1.0" encoding="utf-8"?>
<!-- Generator: Adobe Illustrator 25.0.0, SVG Export Plug-In . SVG Version: 6.00 Build 0)  -->
<svg version="1.2" baseProfile="tiny" id="Layer_1" xmlns="http://www.w3.org/2000/svg" xmlns:xlink="http://www.w3.org/1999/xlink"
	 x="0px" y="0px" viewBox="0 0 1000 1000" overflow="visible" xml:space="preserve">
<g>
	<g>
		<g>
			<path fill="#E6E6E6" d="M416.85,532.41l33.14-71.26c0.32-0.64,1.06-1.16,1.79-1.16h1.07c0.74,0,1.48,0.52,1.79,1.16l33.14,71.26
				c0.64,1.37-0.21,2.75-1.79,2.75h-11.76c-1.9,0-2.75-0.63-3.71-2.64l-3.81-8.36h-28.8l-3.81,8.46c-0.53,1.27-1.7,2.55-3.82,2.55
				h-11.64C417.07,535.16,416.22,533.78,416.85,532.41z M460.37,509.75l-8.05-17.47h-0.11l-7.94,17.47H460.37z"/>
			<path fill="#E6E6E6" d="M483.17,463.79c-0.63-1.38,0.22-2.75,1.81-2.75h14.08c0.85,0,1.59,0.63,1.81,1.16l17.47,38.65h0.63
				l17.47-38.65c0.22-0.53,0.96-1.16,1.81-1.16h14.09c1.59,0,2.43,1.37,1.79,2.75l-33.24,71.26c-0.33,0.64-0.96,1.16-1.81,1.16
				h-1.06c-0.85,0-1.49-0.52-1.81-1.16L483.17,463.79z"/>
			<path fill="#E6E6E6" d="M564.94,463.05c0-1.06,0.85-2.01,2.01-2.01h43.84c1.16,0,2.01,0.96,2.01,2.01v11.54
				c0,1.06-0.85,2.01-2.01,2.01h-29.33v13.13h24.14c1.07,0,2.01,0.96,2.01,2.01v11.54c0,1.16-0.95,2.01-2.01,2.01h-24.14v14.29
				h29.33c1.16,0,2.01,0.96,2.01,2.01v11.54c0,1.06-0.85,2.01-2.01,2.01h-43.84c-1.16,0-2.01-0.96-2.01-2.01V463.05z"/>
			<path fill="#E6E6E6" d="M629.14,463.05c0-1.06,0.85-2.01,1.9-2.01h25.84c20.43,0,37.16,16.62,37.16,36.95
				c0,20.55-16.73,37.17-37.16,37.17h-25.84c-1.06,0-1.9-0.96-1.9-2.01V463.05z M655.82,519.48c11.97,0,20.65-9.42,20.65-21.49
				c0-11.97-8.68-21.38-20.65-21.38h-10.16v42.88H655.82z"/>
			<path fill="#E6E6E6" d="M709.13,463.05c0-1.06,0.85-2.01,2.01-2.01h43.84c1.16,0,2.01,0.96,2.01,2.01v11.54
				c0,1.06-0.85,2.01-2.01,2.01h-29.33v13.13h24.14c1.07,0,2.01,0.96,2.01,2.01v11.54c0,1.16-0.95,2.01-2.01,2.01h-24.14v14.29
				h29.33c1.16,0,2.01,0.96,2.01,2.01v11.54c0,1.06-0.85,2.01-2.01,2.01h-43.84c-1.16,0-2.01-0.96-2.01-2.01V463.05z"/>
			<path fill="#E6E6E6" d="M805.94,459.99c21.18,0,38.13,17.04,38.13,38.22s-16.95,38.01-38.13,38.01s-38.01-16.83-38.01-38.01
				S784.76,459.99,805.94,459.99z M805.94,519.28c11.65,0,21.18-9.53,21.18-21.07c0-11.65-9.53-21.29-21.18-21.29
				c-11.54,0-21.07,9.64-21.07,21.29C784.87,509.75,794.4,519.28,805.94,519.28z"/>
		</g>
	</g>
	<g>
		<path fill="#E6E6E6" d="M353.44,556.56c-1.25-2.27-3.01-4.35-3.7-9.16l-9.31-60.35c-0.69-8.52,2.99-11.47,6.67-18.46
			c2.35-4.46,2.97-9.26,1.08-14.13c-2.54-6.56-8.82-11.16-15.35-11.3c-8.17-0.17-14.08,3.49-17.12,11.7
			c-3.06,8.27-6.99,15.73-13.2,21.84l-4.83,4.03l-5.58,4.26c-3.9-4.59-7.89-8.86-11.77-13.29l-0.4-0.51
			c-1.24-1.74-2.53-3.49-4.05-5.28c-11.42-13.43-18.07-27.89-18.34-45.59c-0.2-12.87-11.59-21.93-24.08-20.09
			c-12.5,1.84-20.74,13.8-17.44,26.11c3.7,13.79,2.33,27.01-2.97,40.06c-1.16,3.04-2.38,6.09-3.55,9.13l-19.56,48.7l-1.66,4.12
			c-2.69,6.38-5.23,12.82-8.06,19.15c-1.61,4-3.34,7.9-5.37,11.6c-3.37,6.15-7.53,11.77-13.24,16.42c-4.65,3.78-6.95,8.85-5,14.83
			c0.63,1.94,1.55,3.6,2.69,4.99c0.54,0.66,1.12,1.27,1.77,1.8c2.08,1.68,4.72,2.67,7.9,2.83c6.68,0.33,10.76-3.41,13.41-9.16
			c3.56-7.72,8.53-14.43,15.11-19.77c11.91-9.67,23.93-19.19,35.98-28.67l23.4-18.39l34.47-26.32l25.46,32.96l3.87,4.94l6.31,8.4
			c8.16,11.14,7.63,12.14,9.81,20.61c1.76,6.84,6.74,8.51,11.8,6.67c0.4-0.14,0.79-0.26,1.19-0.45c1.3-0.64,2.36-1.46,3.2-2.41
			C355.62,565.4,355.94,561.08,353.44,556.56z M183.35,568.04l-2.91,2.22l9.63-22.83l10.39-25.04c2.87-7.07,5.7-14.15,8.49-21.26
			l1.29-3.21l6.87-17.11c3.57-8.58,7.58-16.92,11.42-25.35c4.32-9.46,11.99-11.37,20.75-6.01c1.6,0.98,6.51,5.87,11.83,11.39
			c8.03,8.32,16.18,18.2,16.18,18.2c2.73,3.58,4.83,6.08,8.41,10.83L183.35,568.04z M322.74,523.05l-24.55-30.6l5.53-4.22
			c4.8-3.13,9.67-6.08,15.18-8.02c4.31-1.51,7.87-1.03,10.44,2.95c0.39,0.6,0.9,1.16,1.12,2.32l9.06,58.74L322.74,523.05z"/>
	</g>
</g>
</svg>
